{
	"asset":{
		"generator":"Khronos glTF Blender I/O v3.6.27",
		"version":"2.0"
	},
	"scene":0,
	"scenes":[
		{
			"name":"Scene",
			"nodes":[
				0
			]
		}
	],
	"nodes":[
		{
			"mesh":0,
			"name":"Cube",
			"translation":[
				0,
				0.8714461326599121,
				0
			]
		}
	],
	"materials":[
		{
			"doubleSided":true,
			"name":"Material.001",
			"pbrMetallicRoughness":{
				"baseColorFactor":[
					0.6491111516952515,
					0.7991744875907898,
					1,
					1
				],
				"metallicFactor":0,
				"roughnessFactor":0.5
			}
		}
	],
	"meshes":[
		{
			"name":"Cube.001",
			"primitives":[
				{
					"attributes":{
						"POSITION":0,
						"NORMAL":1,
						"TEXCOORD_0":2
					},
					"indices":3,
					"material":0
				}
			]
		}
	],
	"accessors":[
		{
			"bufferView":0,
			"componentType":5126,
			"count":3584,
			"max":[
				1.7479053735733032,
				5.2329936027526855,
				1.6670750379562378
			],
			"min":[
				-1.7479053735733032,
				-0.2595597207546234,
				-1.6670750379562378
			],
			"type":"VEC3"
		},
		{
			"bufferView":1,
			"componentType":5126,
			"count":3584,
			"type":"VEC3"
		},
		{
			"bufferView":2,
			"componentType":5126,
			"count":3584,
			"type":"VEC2"
		},
		{
			"bufferView":3,
			"componentType":5123,
			"count":5376,
			"type":"SCALAR"
		}
	],
	"bufferViews":[
		{
			"buffer":0,
			"byteLength":43008,
			"byteOffset":0,
			"target":34962
		},
		{
			"buffer":0,
			"byteLength":43008,
			"byteOffset":43008,
			"target":34962
		},
		{
			"buffer":0,
			"byteLength":28672,
			"byteOffset":86016,
			"target":34962
		},
		{
			"buffer":0,
			"byteLength":10752,
			"byteOffset":114688,
			"target":34963
		}
	],
	"buffers":[
		{
			"byteLength":125440,
			"uri":"data:application/octet-stream;base64,"
		}
	]
}
